<svg viewBox="0 0 34 34" fill="none" xmlns="http://www.w3.org/2000/svg">
<path d="M22.4 20.375H23.75V21.725H10.25V20.375H11.6V15.65C11.6 14.2178 12.1689 12.8443 13.1816 11.8316C14.1943 10.8189 15.5678 10.25 17 10.25C18.4322 10.25 19.8057 10.8189 20.8184 11.8316C21.8311 12.8443 22.4 14.2178 22.4 15.65V20.375ZM21.05 20.375V15.65C21.05 14.5759 20.6233 13.5457 19.8638 12.7862C19.1043 12.0267 18.0741 11.6 17 11.6C15.9259 11.6 14.8957 12.0267 14.1362 12.7862C13.3767 13.5457 12.95 14.5759 12.95 15.65V20.375H21.05ZM14.975 23.075H19.025V24.425H14.975V23.075Z" fill="#667085"/>
</svg>
